#!OML:ASF E:/inclinewalkrobotboard/Project1/Captureday1/Session1/subject1.ASF
:FULLY-SPECIFIED
:DEGREES
376
root 0 0 0 1.805981192616944 -10.236743919100881 0.9238217962969142
lowerback 0.11511848653677226 -1.5835938729401275 -2.6666473039844685
upperback -0.49978496402291367 -2.0658352769757755 1.923843679480239
thorax -0.4823669781977863 -1.0311468764874172 3.4124046436443156
lowerneck -25.882176652338792 -1.8868633989361698 -7.504070259497591
upperneck 23.370167758584383 -0.1885910135333445 2.5888176726968144
head 12.11715673168872 -0.5612468712353043 2.30060603931497
rclavicle -2.5654475615342386E-15 -7.828740603659631E-16
rhumerus -31.171397041300775 -2.669694983835002 -81.94747689896751
rradius 31.421805005691898
rwrist 18.607073841484194
rhand -18.042753120646957 9.288871034018657
rfingers 7.125019999999932
rthumb 8.224220414878637 -20.473660676835895
lclavicle -4.190813514191141E-15 2.59175689314422E-15
lhumerus -22.580902899759742 -3.062554307123655 92.43205500662557
lradius 62.091921683483875
lwrist 2.3271872686223265
lhand -28.330918696904387 20.8486737583939
lfingers 7.125020000000009
lthumb -1.736742347739626 50.84998690199306
rfemur 5.5663629146011715 8.766412799250437 38.57215808315342
rtibia 20.494786787648707
rfoot -24.138458669899023 -7.866626176551577
rtoes 3.8090245719530786
lfemur -27.73386020331523 1.7088002652251184 -11.386434619572167
ltibia 49.13579802360927
lfoot -4.08576624330222 -1.2565504278879835
ltoes -6.389764020759493
377
root 0 0 0 1.8108907640676686 -10.262109312446842 0.9328224807981449
lowerback 0.05693088008587521 -1.5827309639141731 -2.678369966734071
upperback -0.5131004913465252 -2.0671760360391627 1.8953146927200666
thorax -0.4649657544935334 -1.0301124224630804 3.3872114959996527
lowerneck -25.911837008291766 -1.9225427093901735 -7.532864462564383
upperneck 23.514314218935876 -0.23999664285656153 2.6170800414581565
head 12.172874298425544 -0.5867631561333093 2.3090439579032442
rclavicle -3.4576694509676213E-15 -1.4679597780476224E-15
rhumerus -30.60396275079419 -1.1769569591056808 -82.36819545970422
rradius 31.876106763492825
rwrist 18.19989664223802
rhand -18.366639598098317 9.329849263256449
rfingers 7.125019999999937
rthumb 7.911559975405955 -20.444780148307327
lclavicle -4.973650193008045E-15 2.422371784568691E-15
lhumerus -22.275128313797964 -2.55800408154863 92.27430394222512
lradius 61.82966608477345
lwrist 2.3020857748726566
lhand -28.311231632680283 20.77554407767334
lfingers 7.125020000000008
lthumb -1.721421399136137 50.77433768510363
rfemur 9.584697319280764 8.651209635016055 38.08254318317401
rtibia 22.84349787157883
rfoot -23.442494599860805 -7.006457960716318
rtoes 0.7250488282597898
lfemur -31.509685874525733 -0.4542922394333695 -10.265041030552055
ltibia 37.439509418528694
lfoot -4.913170163564645 1.6865355887250453
ltoes -3.98326985699821
378
root 0 0 0 1.8114992146685256 -10.294828214116071 0.9371471849500947
lowerback -0.002341316337440391 -1.5821212711958104 -2.6913684942397196
upperback -0.534636571642273 -2.067521385059066 1.8634547967161688
thorax -0.4556341723043589 -1.0285426650500453 3.3598671076951367
lowerneck -25.86768583696574 -1.934583871505856 -7.563661730514111
upperneck 23.7715128493382 -0.2574495947186414 2.6184978610255523
head 12.258832179047555 -0.6035160606041524 2.3146090016772933
rclavicle -2.277680940608281E-15 -2.1645934649996936E-15
rhumerus -30.425367044919923 -0.45073975399556154 -82.41141738301657
rradius 31.98665839333928
rwrist 18.04316290357276
rhand -18.51718136220584 9.356472198170088
rfingers 7.125019999999939
rthumb 7.765341409427107 -20.42061642782354
lclavicle -5.0946192720290166E-15 2.34370082409455E-15
lhumerus -22.000885184674896 -1.9717723399508245 92.14485631854569
lradius 61.62161676568101
lwrist 2.2456581547931904
lhand -28.302298860887827 20.758518183867004
lfingers 7.125020000000009
lthumb -1.714889870398273 50.75493630272604
rfemur 13.864885890853468 8.26068516819338 36.99806788030498
rtibia 27.10973841645501
rfoot -20.783387112154138 -5.377434193049293
rtoes -3.4426426501947125
lfemur -32.15726927526593 -3.559805269435635 -9.192752497312059
ltibia 26.05564712939999
lfoot -4.024286683010137 3.633994045446422
ltoes -2.15216649139383
379
root 0 0 0 1.8093556399888082 -10.32538497229813 0.9368991013761894
lowerback -0.056080186786817254 -1.5817178274685628 -2.7046772149463685
upperback -0.5583540521754902 -2.066881335407551 1.8316762818051697
thorax -0.45235219467145815 -1.0266456748282902 3.333049137786297
lowerneck -25.749766543984347 -1.9247246895967633 -7.596828849799697
upperneck 24.133590219803494 -0.2451373222593637 2.5972143542447053
head 12.371187635057762 -0.6121731858899996 2.3181352693136335
rclavicle -2.5199829395294696E-15 -2.4014629663139694E-15
rhumerus -30.43721818738132 -0.24039856897585032 -82.29877971366308
rradius 31.926123505552898
rwrist 17.9943612308521
rhand -18.571472244826076 9.40401397030785
rfingers 7.125019999999937
rthumb 7.712205523637341 -20.371023048894415
lclavicle -6.08579690977858E-15 2.3212306711650102E-15
lhumerus -21.720231810705833 -1.3140357053844496 92.05273985498991
lradius 61.41326158616751
lwrist 2.1012645605292644
lhand -28.36361743070729 20.716805913201544
lfingers 7.12502000000001
lthumb -1.7721995075962962 50.7063810504759
rfemur 16.061173637837037 7.3525999253347 35.100255202586595
rtibia 33.11378245120604
rfoot -16.01170449507269 -3.4162784646936704
rtoes -6.399784406267442
lfemur -31.191501659133216 -4.7370176937967745 -8.823003730075445
ltibia 22.58457652644666
lfoot -3.9053560130085634 4.047533695590947
ltoes -2.631540744142283
